<svg xmlns="http://www.w3.org/2000/svg" width="1200" height="630" viewBox="0 0 1200 630" fill="none">
  <rect width="1200" height="630" fill="#0a0f1c"/>
  <g stroke="#ffce1f" stroke-opacity="0.08" stroke-width="1">
    <path d="M0 90H1200M0 180H1200M0 270H1200M0 360H1200M0 450H1200M0 540H1200"/>
    <path d="M100 0V630M250 0V630M400 0V630M550 0V630M700 0V630M850 0V630M1000 0V630M1150 0V630"/>
  </g>
  <circle cx="1080" cy="120" r="220" fill="#ffce1f" fill-opacity="0.06"/>
  <g transform="translate(80,235)">
    <path d="M40 4l30 11v22c0 19.5-12.7 36.8-30 43-17.3-6.2-30-23.5-30-43V15l30-11z" fill="#0d1424" stroke="#ffce1f" stroke-width="4.5" stroke-linejoin="round"/>
    <path d="M40 18v50" stroke="#ffce1f" stroke-width="4.5" stroke-dasharray="6 6"/>
    <path d="M26 38h7l4-8h6l4 8h7" stroke="#fff" stroke-width="4" stroke-linecap="round" stroke-linejoin="round"/>
  </g>
  <text x="190" y="270" font-family="system-ui, Arial, sans-serif" font-size="40" font-weight="800" letter-spacing="2" fill="#ffce1f">TRUCKERS LEGAL SHIELD</text>
  <text x="80" y="380" font-family="system-ui, Arial, sans-serif" font-size="76" font-weight="800" fill="#ffffff">Protect Your CDL.</text>
  <text x="80" y="465" font-family="system-ui, Arial, sans-serif" font-size="76" font-weight="800" fill="#ffce1f">Protect Your Livelihood.</text>
  <text x="80" y="535" font-family="system-ui, Arial, sans-serif" font-size="30" font-weight="500" fill="#cbd5e1">Nationwide attorney network for CDL drivers · Fast attorney dispatch</text>
</svg>
